<svg xmlns="http://www.w3.org/2000/svg" viewBox="0 0 387.32 387.32"><defs><style>.cls-1{fill:#f5e6fe;}.cls-2{fill:#be63f9;}.cls-3{fill:#c7a6ce;stroke:#c7a6ce;stroke-linecap:round;stroke-linejoin:round;stroke-width:5px;}</style></defs><g id="Layer_2" data-name="Layer 2"><g id="bold"><path class="cls-1" d="M314.7,387.32H72.62A72.62,72.62,0,0,1,0,314.7V72.62A72.62,72.62,0,0,1,72.62,0H314.7a72.62,72.62,0,0,1,72.62,72.62V314.7A72.62,72.62,0,0,1,314.7,387.32Z"/><path class="cls-2" d="M253.24,79.64H119.9A29.32,29.32,0,0,0,90.57,109V285A29.32,29.32,0,0,0,119.9,314.3H230.83a78.09,78.09,0,0,1-1.6-16v-56a21.76,21.76,0,0,1,.11-2.67H133.23a10.67,10.67,0,0,1,0-21.33H233.72A66.51,66.51,0,0,1,282.57,177V109A29.32,29.32,0,0,0,253.24,79.64ZM133.24,133h53.33a10.68,10.68,0,0,1,0,21.35H133.24a10.68,10.68,0,0,1,0-21.35ZM239.9,197H133.23a10.67,10.67,0,1,1,0-21.33H239.91a10.67,10.67,0,1,1,0,21.33Z"/><g id="sync"><path class="cls-3" d="M295.74,212.28l-.06-15.92-23.34,21.31,23.51,21.13-.06-15.92c19.32-.07,35.19,14.18,35.26,31.69a31.62,31.62,0,0,1-4,14.87l8.82,7.92c4.07-6.91,7-14.35,6.93-22.84C342.67,231.18,321.51,212.17,295.74,212.28Zm.3,74.25c-19.33.08-35.2-14.18-35.27-31.68a31.7,31.7,0,0,1,4-14.87L256,232.06c-4.07,6.91-7,14.35-6.94,22.84.09,23.33,21.25,42.35,47,42.24l.07,15.91,23.34-21.31L296,270.62Z"/></g></g></g></svg>